<svg width="63" height="28" viewBox="0 0 63 28" fill="none" xmlns="http://www.w3.org/2000/svg">
    <g clip-path="url(#clip0)">
        <path d="M6.01562 18.1782H12.8516V22.3565H1.64062V3.36424H6.01562V18.1782ZM25.391 20.6743C23.9875 22.0489 22.2738 22.7363 20.2504 22.7363C18.2269 22.7363 16.5134 22.0489 15.1098 20.6743C13.7061 19.2815 13.0043 17.5813 13.0043 15.5735C13.0043 13.5658 13.7061 11.8746 15.1098 10.4999C16.5134 9.10713 18.2269 8.41075 20.2504 8.41075C22.2738 8.41075 23.9875 9.10713 25.391 10.4999C26.7947 11.8746 27.4964 13.5658 27.4964 15.5735C27.4964 17.5813 26.7947 19.2815 25.391 20.6743ZM18.0082 17.8797C18.6098 18.4766 19.3572 18.7751 20.2504 18.7751C21.1436 18.7751 21.891 18.4766 22.4925 17.8797C23.0941 17.2828 23.3949 16.5141 23.3949 15.5735C23.3949 14.633 23.0941 13.8642 22.4925 13.2673C21.891 12.6704 21.1436 12.372 20.2504 12.372C19.3572 12.372 18.6098 12.6704 18.0082 13.2673C17.4066 13.8642 17.1059 14.633 17.1059 15.5735C17.1059 16.5141 17.4066 17.2828 18.0082 17.8797ZM36.1152 6.89137C34.4199 6.74666 33.5722 7.37974 33.5722 8.7906H36.1152V12.6976H33.5722V22.3565H29.4707V12.6976H27.6386V8.7906H29.4707C29.4707 6.83711 30.0265 5.35391 31.1386 4.34098C32.2505 3.30998 33.9093 2.85779 36.1152 2.98439V6.89137ZM45.213 12.6976H42.3966V17.4999C42.3966 18.0425 42.6153 18.3862 43.0528 18.5309C43.4903 18.6756 44.2105 18.7208 45.213 18.6666V22.3565C42.6064 22.6278 40.8017 22.3836 39.7989 21.6239C38.7964 20.8462 38.295 19.4715 38.295 17.4999V12.6976H36.1075V8.7906H38.295V6.21308L42.3966 4.99215V8.7906H45.213V12.6976ZM55.5953 8.7906H59.9703L55.2945 21.9495C54.5289 24.0838 53.5172 25.6123 52.2594 26.5348C51.0199 27.4573 49.434 27.8734 47.5016 27.7829V23.9844C48.4496 23.9844 49.1787 23.8125 49.6891 23.4689C50.1996 23.1433 50.6098 22.5644 50.9195 21.7325L45.4781 8.7906H49.9898L53.025 17.0929L55.5953 8.7906Z" fill="#2E3948"/>
        <path d="M62.5352 21.9766C62.0248 22.483 61.4141 22.7363 60.7031 22.7363C59.9922 22.7363 59.3814 22.483 58.8711 21.9766C58.3607 21.4702 58.1055 20.8642 58.1055 20.1588C58.1055 19.4534 58.3607 18.8474 58.8711 18.341C59.3814 17.8345 59.9922 17.5813 60.7031 17.5813C61.4141 17.5813 62.0248 17.8345 62.5352 18.341C63.0455 18.8474 63.3008 19.4534 63.3008 20.1588C63.3008 20.8642 63.0455 21.4702 62.5352 21.9766Z" fill="#59E1FF"/>
    </g>
    <defs>
        <clipPath id="clip0">
            <rect width="63" height="28" fill="white"/>
        </clipPath>
    </defs>
</svg>
