<?xml version="1.0" standalone="no"?>
<!DOCTYPE svg PUBLIC "-//W3C//DTD SVG 20010904//EN"
 "http://www.w3.org/TR/2001/REC-SVG-20010904/DTD/svg10.dtd">
<svg version="1.0" xmlns="http://www.w3.org/2000/svg"
 width="2016.000000pt" height="2016.000000pt" viewBox="0 0 2016.000000 2016.000000"
 preserveAspectRatio="xMidYMid meet">
<metadata>
Created by potrace 1.14, written by Peter Selinger 2001-2017
</metadata>
<g transform="translate(0.000000,2016.000000) scale(0.100000,-0.100000)"
fill="#000000" stroke="none">
<path d="M11297 13614 c-1 -1 -60 -4 -132 -8 -71 -3 -139 -7 -150 -10 -11 -2
-49 -7 -85 -11 -36 -4 -74 -9 -85 -11 -11 -2 -33 -7 -50 -10 -63 -11 -192 -44
-250 -64 -33 -11 -67 -22 -76 -24 -73 -18 -301 -141 -390 -210 -15 -12 -41
-32 -59 -46 -41 -32 -168 -159 -200 -200 -14 -18 -34 -44 -46 -59 -41 -53 -98
-146 -135 -220 -50 -102 -88 -198 -81 -205 3 -3 0 -6 -6 -6 -7 0 -12 -7 -12
-15 0 -8 -7 -34 -14 -57 -8 -24 -17 -54 -20 -68 -3 -14 -10 -43 -15 -65 -12
-48 -22 -102 -25 -130 -6 -47 -18 -142 -23 -170 -2 -16 -6 -84 -8 -149 -2 -65
-8 -122 -13 -125 -6 -3 -137 -5 -291 -5 -155 1 -282 -2 -282 -5 -1 -3 -2 -284
-3 -623 -1 -545 0 -617 14 -620 8 -2 140 -3 293 -3 l277 1 0 -1543 c0 -1227 3
-1543 13 -1544 46 -4 1290 -3 1295 1 4 3 7 698 7 1545 l0 1540 753 1 c413 0
753 -2 753 -5 1 -4 2 -386 4 -851 2 -769 6 -981 21 -1051 2 -13 7 -42 9 -64 7
-56 30 -169 50 -240 9 -33 18 -64 19 -70 5 -19 17 -50 27 -67 5 -10 9 -23 9
-29 0 -19 80 -170 127 -241 95 -144 233 -265 385 -337 37 -17 70 -32 73 -31 3
0 18 -6 33 -14 59 -31 381 -104 401 -91 5 3 12 1 16 -4 3 -5 13 -10 23 -9 9 0
51 -3 92 -7 41 -4 188 -7 325 -8 229 -1 321 3 505 20 36 3 72 5 81 5 15 -1 17
50 15 590 l-1 591 -245 2 c-135 1 -256 5 -270 8 -14 3 -43 8 -65 12 -186 28
-292 121 -311 275 -5 41 -10 1515 -5 1601 1 13 50 15 449 15 l447 0 2 621 c1
465 -2 623 -10 626 -7 2 -209 4 -449 3 -381 -1 -437 1 -440 14 -2 8 -3 282 -2
608 0 325 0 592 -2 592 -1 0 -42 -12 -90 -26 -49 -14 -93 -27 -99 -28 -5 -2
-17 -5 -25 -8 -8 -3 -51 -16 -95 -28 -44 -13 -114 -34 -155 -47 -41 -14 -84
-26 -95 -29 -11 -2 -72 -20 -135 -39 -107 -33 -130 -40 -170 -50 -8 -2 -15 -4
-15 -5 0 -1 -17 -6 -47 -13 -7 -1 -17 -5 -23 -9 -8 -4 -64 -20 -85 -23 -3 0
-11 -4 -18 -9 -7 -4 -16 -5 -19 -2 -3 3 -11 2 -17 -2 -6 -5 -40 -17 -76 -27
-36 -9 -83 -24 -105 -32 l-40 -14 0 -409 c0 -403 0 -410 -20 -411 -66 -3
-1472 -4 -1482 -1 -17 5 -7 131 18 227 18 66 65 149 118 207 87 95 243 162
405 173 34 2 61 5 61 5 0 1 12 3 28 4 15 1 27 -2 27 -7 0 -4 8 -3 18 2 10 5
23 7 29 3 9 -6 70 -8 94 -3 3 1 5 281 5 624 l-1 622 -100 3 c-55 1 -112 4
-128 5 -15 2 -28 3 -30 1z"/>
<path d="M531 13480 c-8 -6 -9 -6069 -1 -6071 30 -6 3573 -2 3577 4 8 13 7
1316 -1 1324 -3 3 -494 6 -1091 6 -768 0 -1085 4 -1088 11 -1 6 -3 1072 -2
2369 0 2094 -2 2357 -15 2358 -57 4 -1373 3 -1379 -1z"/>
<path d="M6308 11865 c-2 -2 -39 -6 -83 -10 -44 -3 -91 -8 -105 -10 -14 -2
-38 -6 -55 -9 -27 -4 -94 -18 -150 -30 -48 -10 -149 -38 -195 -54 -8 -3 -17
-6 -20 -7 -6 -2 -30 -11 -75 -28 -16 -7 -32 -12 -35 -13 -39 -7 -277 -130
-352 -182 -26 -18 -51 -32 -56 -32 -6 0 -12 -3 -14 -7 -1 -5 -39 -35 -83 -67
-44 -33 -93 -71 -110 -85 -56 -49 -261 -256 -307 -311 -67 -81 -174 -232 -182
-258 -4 -12 -11 -22 -15 -22 -4 0 -20 -27 -36 -60 -16 -33 -32 -60 -37 -60 -4
0 -7 -3 -6 -7 2 -5 -7 -28 -19 -53 -19 -40 -30 -67 -63 -145 -5 -11 -21 -58
-36 -105 -14 -47 -29 -92 -32 -100 -17 -50 -59 -274 -67 -365 -6 -68 -17 -270
-16 -290 0 -5 3 -50 5 -100 5 -104 15 -206 22 -238 3 -12 6 -29 6 -37 1 -13
14 -79 33 -165 12 -52 17 -75 17 -82 0 -5 6 -24 13 -43 8 -19 28 -75 46 -125
34 -97 128 -298 141 -303 4 -2 8 -9 8 -14 0 -13 61 -112 72 -116 5 -2 8 -8 8
-13 0 -13 122 -179 132 -179 4 0 8 -4 8 -10 0 -17 211 -235 291 -301 24 -20
58 -49 74 -63 17 -14 38 -29 48 -32 9 -3 17 -8 17 -12 0 -4 18 -18 40 -32 22
-14 40 -28 40 -32 0 -5 4 -8 9 -8 5 0 45 -22 88 -48 82 -51 113 -66 126 -64 4
1 7 -3 7 -8 0 -6 4 -10 9 -10 6 0 43 -15 83 -34 141 -66 327 -126 468 -152 19
-3 44 -8 55 -10 11 -2 38 -6 60 -9 22 -3 54 -8 70 -11 145 -23 485 -23 665 2
19 3 51 6 70 9 19 2 36 4 38 5 3 3 12 5 62 14 68 12 290 75 322 92 15 8 28 12
28 9 0 -3 10 0 23 7 12 7 24 13 27 14 28 6 113 47 121 57 3 4 14 9 25 11 19 4
64 27 129 67 17 10 45 26 63 36 17 9 32 20 32 25 0 4 5 8 11 8 6 0 38 20 70
45 33 25 61 45 64 45 2 0 15 10 28 23 13 12 45 39 70 60 48 40 192 182 238
233 89 101 259 339 259 363 0 5 3 11 8 13 11 5 64 108 55 108 -4 0 -3 4 3 8
11 7 53 94 69 142 1 3 7 19 14 35 48 116 116 377 126 485 2 19 6 62 10 95 6
53 15 163 16 190 0 6 -2 27 -3 48 -2 21 0 41 4 44 5 2 5 9 2 15 -4 6 -9 50
-10 97 -5 128 -18 238 -39 334 -7 33 -14 68 -21 107 -4 19 -9 40 -13 45 -3 6
-7 18 -8 29 -3 16 -45 149 -60 186 -4 8 -7 17 -8 20 -22 64 -165 344 -184 360
-3 3 -22 30 -42 60 -102 156 -327 398 -484 520 -38 30 -77 60 -85 67 -44 40
-367 230 -395 233 -3 0 -26 10 -52 21 -27 11 -65 26 -85 32 -21 7 -38 16 -38
20 0 5 -5 5 -10 2 -6 -4 -17 -1 -25 5 -8 7 -15 9 -15 5 0 -4 -7 -2 -15 5 -8 7
-15 10 -15 7 0 -3 -16 1 -35 9 -19 8 -35 12 -35 9 0 -2 -11 0 -26 5 -14 6 -37
12 -52 15 -15 3 -38 7 -52 10 -14 3 -36 8 -50 11 -82 14 -98 17 -125 21 -16 2
-48 6 -70 9 -47 5 -442 14 -447 9z m207 -1265 c0 -1 27 -3 60 -5 33 -1 60 -4
60 -5 0 -1 14 -3 30 -5 37 -4 83 -13 110 -22 11 -4 22 -7 25 -8 40 -8 184 -75
239 -112 72 -47 181 -146 235 -213 33 -42 96 -143 96 -156 0 -7 4 -14 8 -16
12 -4 69 -154 76 -199 3 -20 8 -42 10 -50 28 -78 24 -380 -6 -494 -6 -22 -11
-44 -13 -50 -18 -83 -88 -231 -143 -303 -22 -29 -59 -74 -83 -100 -46 -49
-156 -142 -168 -142 -4 0 -16 -8 -27 -17 -16 -15 -109 -61 -189 -94 -30 -12
-133 -37 -190 -45 -58 -9 -270 -9 -332 0 -134 18 -276 71 -382 142 -24 16 -51
34 -59 39 -53 34 -139 120 -200 199 -59 76 -141 236 -147 286 0 3 -3 10 -6 15
-6 9 -11 34 -25 105 -25 135 -22 401 6 474 4 12 8 24 8 29 5 77 101 285 175
373 23 28 133 139 155 157 51 40 120 85 157 102 22 11 43 23 46 28 4 5 12 6
18 3 6 -4 11 -3 11 2 0 19 203 70 306 77 36 2 68 5 69 7 3 3 70 1 70 -2z"/>
<path d="M14556 11742 c-2 -2 2 -16 10 -30 8 -15 52 -119 99 -232 48 -113 92
-218 100 -235 7 -16 23 -55 35 -85 12 -30 32 -78 46 -108 13 -29 24 -58 24
-65 0 -7 4 -17 8 -23 5 -5 23 -45 41 -89 18 -44 42 -100 53 -125 11 -25 24
-54 28 -65 4 -11 19 -47 33 -80 15 -33 45 -105 68 -160 22 -55 48 -116 56
-135 20 -45 32 -75 78 -185 20 -49 46 -109 56 -132 10 -24 19 -45 19 -47 0 -2
10 -25 22 -52 12 -27 21 -52 20 -56 -1 -5 3 -8 10 -8 6 0 9 -3 5 -6 -3 -4 0
-19 8 -34 8 -15 12 -30 9 -32 -2 -3 2 -11 11 -18 8 -7 15 -16 15 -21 0 -4 5
-20 12 -36 6 -15 12 -30 13 -33 1 -3 6 -16 12 -30 6 -14 23 -54 37 -90 15 -36
36 -84 47 -107 10 -24 19 -45 19 -48 0 -2 11 -29 25 -59 14 -30 25 -57 25 -60
0 -4 9 -25 19 -49 11 -23 45 -101 75 -172 73 -173 79 -189 80 -197 1 -3 4 -10
9 -14 4 -4 7 -16 7 -26 0 -10 5 -18 10 -18 6 0 9 -3 8 -7 -1 -5 4 -20 10 -35
33 -79 95 -227 107 -253 7 -16 25 -59 39 -95 27 -66 32 -77 59 -140 8 -19 27
-64 42 -100 14 -36 37 -89 51 -118 13 -29 24 -55 24 -58 0 -6 14 -38 51 -120
11 -22 19 -43 19 -47 0 -4 9 -26 19 -50 38 -82 54 -122 53 -129 -1 -5 3 -8 8
-8 7 0 7 -6 1 -19 -6 -10 -7 -21 -4 -25 3 -3 0 -6 -7 -6 -7 0 -11 -3 -7 -6 6
-6 -6 -33 -75 -169 -37 -71 -56 -102 -108 -169 -19 -25 -120 -126 -146 -146
-38 -30 -124 -80 -149 -86 -14 -3 -25 -10 -25 -14 0 -6 -55 -22 -63 -18 -1 1
-11 -4 -23 -10 -11 -6 -32 -13 -45 -16 -13 -3 -42 -10 -64 -15 -75 -18 -194
-31 -305 -35 l-65 -2 0 -37 c0 -20 -4 -37 -8 -37 -5 0 -5 -5 -2 -10 6 -9 9
-131 5 -155 -2 -5 -1 -14 0 -20 1 -5 1 -36 1 -67 -1 -32 -1 -66 -1 -75 0 -10
0 -42 0 -71 0 -30 -2 -58 -6 -63 -3 -5 -2 -9 3 -9 4 0 8 -16 8 -35 0 -19 -3
-35 -6 -35 -4 0 -4 -15 0 -33 5 -18 5 -41 1 -52 -4 -11 -6 -23 -3 -28 4 -7 6
-132 3 -152 -2 -5 -1 -14 0 -20 1 -5 1 -36 1 -67 -1 -32 -1 -66 -1 -75 0 -10
0 -44 0 -77 0 -32 -2 -61 -4 -65 -3 -4 -1 -13 4 -20 6 -10 41 -14 141 -14 186
-1 367 13 497 37 17 3 47 9 65 12 17 3 37 7 42 8 6 2 28 7 50 11 55 12 55 12
58 15 1 1 10 3 20 6 31 7 42 11 67 21 14 6 41 14 60 18 19 4 40 11 45 15 6 4
21 11 35 15 69 19 370 180 370 197 0 4 6 8 13 8 18 0 180 131 256 206 35 35
68 64 73 64 4 0 8 3 8 8 0 4 14 23 32 42 51 56 177 219 228 296 77 116 226
378 235 414 1 3 16 37 35 75 29 63 57 126 80 180 5 11 12 31 16 45 4 14 9 27
13 30 3 3 20 46 37 95 18 50 53 149 79 220 25 72 48 135 49 140 2 6 6 17 9 25
40 107 60 166 60 177 0 7 3 13 7 13 4 0 7 6 7 13 1 12 37 116 53 152 4 11 27
76 51 145 23 69 47 131 52 138 5 6 7 12 4 12 -3 0 6 28 20 63 14 34 26 69 28
77 1 8 7 28 14 43 6 16 11 35 11 43 0 8 4 14 10 14 5 0 9 3 8 8 -3 9 4 29 62
192 27 74 67 189 90 255 23 66 46 129 50 140 11 25 62 170 91 255 12 36 26 70
31 76 5 7 8 16 7 20 -1 5 1 16 4 24 9 20 89 246 138 390 22 63 44 124 48 135
5 11 23 61 41 110 17 50 34 97 37 105 3 8 7 20 8 25 4 13 44 123 55 150 4 11
29 81 55 155 25 74 51 147 57 162 5 15 10 31 10 35 -1 4 6 18 14 31 8 12 12
22 10 22 -4 0 29 97 51 150 3 8 7 17 8 20 6 24 18 59 25 75 5 11 18 47 28 80
11 33 32 92 47 130 15 39 28 77 30 85 2 8 15 45 29 83 14 37 26 69 26 70 0 2
-315 3 -700 3 l-700 1 -7 -26 c-3 -14 -8 -30 -12 -36 -3 -5 -7 -14 -8 -20 -9
-39 -28 -103 -78 -260 -32 -99 -58 -185 -59 -192 -1 -7 -5 -16 -9 -19 -4 -4
-7 -17 -7 -29 0 -11 -5 -26 -12 -33 -7 -7 -9 -12 -6 -12 4 0 -6 -38 -22 -85
-16 -47 -27 -85 -24 -85 2 0 -2 -13 -10 -29 -9 -16 -12 -31 -9 -35 4 -3 1 -6
-6 -6 -7 0 -10 -4 -7 -8 2 -4 -7 -41 -21 -82 -13 -41 -26 -84 -28 -95 -2 -11
-10 -38 -18 -60 -9 -22 -25 -74 -37 -115 -12 -41 -33 -108 -46 -148 -14 -41
-26 -81 -27 -90 -1 -9 -6 -23 -11 -30 -4 -7 -9 -23 -11 -35 -2 -12 -19 -70
-38 -129 -19 -59 -32 -110 -29 -113 3 -3 -1 -5 -8 -5 -7 0 -11 -2 -8 -5 3 -3
-6 -41 -19 -83 -14 -42 -26 -84 -28 -92 -2 -8 -13 -44 -25 -80 -23 -73 -72
-230 -76 -245 -4 -15 -39 -131 -69 -225 -15 -47 -30 -98 -35 -115 l-7 -30 -21
45 c-12 25 -22 52 -22 61 0 8 -4 19 -9 25 -6 7 -82 212 -87 234 0 3 -6 19 -13
35 -30 75 -55 145 -131 355 -44 124 -84 234 -90 245 -5 11 -16 40 -24 65 -13
41 -58 165 -73 200 -3 8 -7 20 -8 25 -4 12 -43 123 -55 150 -4 11 -13 34 -18
50 -6 17 -14 39 -18 50 -4 11 -8 22 -9 25 -1 3 -7 18 -13 33 -7 16 -12 33 -12
38 0 5 -4 17 -10 27 -12 21 -61 152 -64 172 -1 8 -7 24 -13 35 -6 11 -13 32
-16 46 -4 14 -14 43 -24 65 -9 21 -17 42 -17 46 -1 3 -4 10 -8 14 -5 4 -8 18
-8 30 0 13 -4 25 -9 28 -4 3 -14 27 -21 53 -7 27 -16 53 -20 58 -4 6 -26 64
-49 130 -23 66 -46 129 -50 140 -35 85 -54 140 -54 152 0 7 -3 14 -6 15 -14 3
-1441 4 -1445 0z"/>
<path d="M19377 8934 c-1 -1 -27 -5 -57 -7 -105 -10 -274 -71 -346 -126 -12
-9 -32 -23 -45 -31 -32 -20 -179 -170 -179 -182 0 -5 -8 -17 -18 -28 -41 -44
-100 -180 -118 -270 -3 -14 -9 -41 -13 -60 -9 -41 -7 -196 3 -260 4 -25 13
-65 21 -90 8 -25 16 -49 17 -55 3 -20 52 -112 89 -165 189 -277 485 -410 819
-366 166 21 333 106 455 231 81 84 98 103 128 152 l27 43 0 386 0 387 -26 45
c-33 55 -61 90 -138 165 -52 51 -183 147 -200 147 -3 0 -25 9 -49 19 -34 16
-144 52 -154 51 -2 0 -4 0 -5 1 -17 5 -207 17 -211 13z"/>
</g>
</svg>
